<svg xmlns="http://www.w3.org/2000/svg" width="1200" height="630" viewBox="0 0 1200 630">
  <defs>
    <radialGradient id="g" cx="50%" cy="45%" r="50%">
      <stop offset="0%" stop-color="#dc143c" stop-opacity="0.1"/>
      <stop offset="100%" stop-color="transparent"/>
    </radialGradient>
  </defs>

  <rect width="1200" height="630" fill="#07070d"/>
  <ellipse cx="600" cy="285" rx="500" ry="180" fill="url(#g)"/>

  <!-- Stars -->
  <circle cx="80" cy="40" r="1.2" fill="white" opacity="0.4"/>
  <circle cx="250" cy="580" r="0.8" fill="white" opacity="0.3"/>
  <circle cx="420" cy="50" r="1" fill="white" opacity="0.5"/>
  <circle cx="720" cy="35" r="1.3" fill="white" opacity="0.35"/>
  <circle cx="1020" cy="30" r="1.1" fill="white" opacity="0.3"/>
  <circle cx="1130" cy="590" r="0.7" fill="white" opacity="0.4"/>
  <circle cx="950" cy="600" r="0.9" fill="white" opacity="0.35"/>

  <g>    <rect x="172.5" y="234.0" width="8.4" height="16.4" fill="#dc143c" rx="0.6"/>
    <rect x="181.5" y="234.0" width="8.4" height="16.4" fill="#dc143c" rx="0.6"/>
    <rect x="191.5" y="235.0" width="6.5" height="14.5" fill="#dc143c" opacity="0.5" rx="0.4"/>
    <rect x="217.5" y="234.0" width="8.4" height="16.4" fill="#dc143c" rx="0.6"/>
    <rect x="226.5" y="234.0" width="8.4" height="16.4" fill="#dc143c" rx="0.6"/>
    <rect x="236.5" y="235.0" width="6.5" height="14.5" fill="#dc143c" opacity="0.5" rx="0.4"/>
    <rect x="253.5" y="234.0" width="8.4" height="16.4" fill="#dc143c" rx="0.6"/>
    <rect x="262.5" y="234.0" width="8.4" height="16.4" fill="#dc143c" rx="0.6"/>
    <rect x="271.5" y="234.0" width="8.4" height="16.4" fill="#dc143c" rx="0.6"/>
    <rect x="280.5" y="234.0" width="8.4" height="16.4" fill="#dc143c" rx="0.6"/>
    <rect x="289.5" y="234.0" width="8.4" height="16.4" fill="#dc143c" rx="0.6"/>
    <rect x="298.5" y="234.0" width="8.4" height="16.4" fill="#dc143c" rx="0.6"/>
    <rect x="308.5" y="235.0" width="6.5" height="14.5" fill="#dc143c" opacity="0.5" rx="0.4"/>
    <rect x="325.5" y="234.0" width="8.4" height="16.4" fill="#dc143c" rx="0.6"/>
    <rect x="334.5" y="234.0" width="8.4" height="16.4" fill="#dc143c" rx="0.6"/>
    <rect x="343.5" y="234.0" width="8.4" height="16.4" fill="#dc143c" rx="0.6"/>
    <rect x="352.5" y="234.0" width="8.4" height="16.4" fill="#dc143c" rx="0.6"/>
    <rect x="361.5" y="234.0" width="8.4" height="16.4" fill="#dc143c" rx="0.6"/>
    <rect x="370.5" y="234.0" width="8.4" height="16.4" fill="#dc143c" rx="0.6"/>
    <rect x="379.5" y="234.0" width="8.4" height="16.4" fill="#dc143c" rx="0.6"/>
    <rect x="389.5" y="235.0" width="6.5" height="14.5" fill="#dc143c" opacity="0.5" rx="0.4"/>
    <rect x="397.5" y="234.0" width="8.4" height="16.4" fill="#dc143c" rx="0.6"/>
    <rect x="406.5" y="234.0" width="8.4" height="16.4" fill="#dc143c" rx="0.6"/>
    <rect x="415.5" y="234.0" width="8.4" height="16.4" fill="#dc143c" rx="0.6"/>
    <rect x="425.5" y="235.0" width="6.5" height="14.5" fill="#dc143c" opacity="0.5" rx="0.4"/>
    <rect x="460.5" y="234.0" width="8.4" height="16.4" fill="#dc143c" rx="0.6"/>
    <rect x="469.5" y="234.0" width="8.4" height="16.4" fill="#dc143c" rx="0.6"/>
    <rect x="478.5" y="234.0" width="8.4" height="16.4" fill="#dc143c" rx="0.6"/>
    <rect x="488.5" y="235.0" width="6.5" height="14.5" fill="#dc143c" opacity="0.5" rx="0.4"/>
    <rect x="505.5" y="234.0" width="8.4" height="16.4" fill="#dc143c" rx="0.6"/>
    <rect x="514.5" y="234.0" width="8.4" height="16.4" fill="#dc143c" rx="0.6"/>
    <rect x="523.5" y="234.0" width="8.4" height="16.4" fill="#dc143c" rx="0.6"/>
    <rect x="532.5" y="234.0" width="8.4" height="16.4" fill="#dc143c" rx="0.6"/>
    <rect x="541.5" y="234.0" width="8.4" height="16.4" fill="#dc143c" rx="0.6"/>
    <rect x="550.5" y="234.0" width="8.4" height="16.4" fill="#dc143c" rx="0.6"/>
    <rect x="560.5" y="235.0" width="6.5" height="14.5" fill="#dc143c" opacity="0.5" rx="0.4"/>
    <rect x="577.5" y="234.0" width="8.4" height="16.4" fill="#dc143c" rx="0.6"/>
    <rect x="586.5" y="234.0" width="8.4" height="16.4" fill="#dc143c" rx="0.6"/>
    <rect x="596.5" y="235.0" width="6.5" height="14.5" fill="#dc143c" opacity="0.5" rx="0.4"/>
    <rect x="622.5" y="234.0" width="8.4" height="16.4" fill="#dc143c" rx="0.6"/>
    <rect x="631.5" y="234.0" width="8.4" height="16.4" fill="#dc143c" rx="0.6"/>
    <rect x="641.5" y="235.0" width="6.5" height="14.5" fill="#dc143c" opacity="0.5" rx="0.4"/>
    <rect x="649.5" y="234.0" width="8.4" height="16.4" fill="#dc143c" rx="0.6"/>
    <rect x="658.5" y="234.0" width="8.4" height="16.4" fill="#dc143c" rx="0.6"/>
    <rect x="667.5" y="234.0" width="8.4" height="16.4" fill="#dc143c" rx="0.6"/>
    <rect x="676.5" y="234.0" width="8.4" height="16.4" fill="#dc143c" rx="0.6"/>
    <rect x="685.5" y="234.0" width="8.4" height="16.4" fill="#dc143c" rx="0.6"/>
    <rect x="694.5" y="234.0" width="8.4" height="16.4" fill="#dc143c" rx="0.6"/>
    <rect x="704.5" y="235.0" width="6.5" height="14.5" fill="#dc143c" opacity="0.5" rx="0.4"/>
    <rect x="730.5" y="234.0" width="8.4" height="16.4" fill="#dc143c" rx="0.6"/>
    <rect x="739.5" y="234.0" width="8.4" height="16.4" fill="#dc143c" rx="0.6"/>
    <rect x="748.5" y="234.0" width="8.4" height="16.4" fill="#dc143c" rx="0.6"/>
    <rect x="757.5" y="234.0" width="8.4" height="16.4" fill="#dc143c" rx="0.6"/>
    <rect x="766.5" y="234.0" width="8.4" height="16.4" fill="#dc143c" rx="0.6"/>
    <rect x="776.5" y="235.0" width="6.5" height="14.5" fill="#dc143c" opacity="0.5" rx="0.4"/>
    <rect x="793.5" y="234.0" width="8.4" height="16.4" fill="#dc143c" rx="0.6"/>
    <rect x="802.5" y="234.0" width="8.4" height="16.4" fill="#dc143c" rx="0.6"/>
    <rect x="811.5" y="234.0" width="8.4" height="16.4" fill="#dc143c" rx="0.6"/>
    <rect x="820.5" y="234.0" width="8.4" height="16.4" fill="#dc143c" rx="0.6"/>
    <rect x="829.5" y="234.0" width="8.4" height="16.4" fill="#dc143c" rx="0.6"/>
    <rect x="838.5" y="234.0" width="8.4" height="16.4" fill="#dc143c" rx="0.6"/>
    <rect x="847.5" y="234.0" width="8.4" height="16.4" fill="#dc143c" rx="0.6"/>
    <rect x="856.5" y="234.0" width="8.4" height="16.4" fill="#dc143c" rx="0.6"/>
    <rect x="866.5" y="235.0" width="6.5" height="14.5" fill="#dc143c" opacity="0.5" rx="0.4"/>
    <rect x="883.5" y="234.0" width="8.4" height="16.4" fill="#dc143c" rx="0.6"/>
    <rect x="892.5" y="234.0" width="8.4" height="16.4" fill="#dc143c" rx="0.6"/>
    <rect x="901.5" y="234.0" width="8.4" height="16.4" fill="#dc143c" rx="0.6"/>
    <rect x="910.5" y="234.0" width="8.4" height="16.4" fill="#dc143c" rx="0.6"/>
    <rect x="919.5" y="234.0" width="8.4" height="16.4" fill="#dc143c" rx="0.6"/>
    <rect x="928.5" y="234.0" width="8.4" height="16.4" fill="#dc143c" rx="0.6"/>
    <rect x="938.5" y="235.0" width="6.5" height="14.5" fill="#dc143c" opacity="0.5" rx="0.4"/>
    <rect x="955.5" y="234.0" width="8.4" height="16.4" fill="#dc143c" rx="0.6"/>
    <rect x="964.5" y="234.0" width="8.4" height="16.4" fill="#dc143c" rx="0.6"/>
    <rect x="973.5" y="234.0" width="8.4" height="16.4" fill="#dc143c" rx="0.6"/>
    <rect x="982.5" y="234.0" width="8.4" height="16.4" fill="#dc143c" rx="0.6"/>
    <rect x="991.5" y="234.0" width="8.4" height="16.4" fill="#dc143c" rx="0.6"/>
    <rect x="1000.5" y="234.0" width="8.4" height="16.4" fill="#dc143c" rx="0.6"/>
    <rect x="1010.5" y="235.0" width="6.5" height="14.5" fill="#dc143c" opacity="0.5" rx="0.4"/>
    <rect x="172.5" y="251.0" width="8.4" height="16.4" fill="#dc143c" rx="0.6"/>
    <rect x="181.5" y="251.0" width="8.4" height="16.4" fill="#dc143c" rx="0.6"/>
    <rect x="191.5" y="252.0" width="6.5" height="14.5" fill="#dc143c" opacity="0.5" rx="0.4"/>
    <rect x="208.5" y="251.0" width="8.4" height="16.4" fill="#dc143c" rx="0.6"/>
    <rect x="217.5" y="251.0" width="8.4" height="16.4" fill="#dc143c" rx="0.6"/>
    <rect x="227.5" y="252.0" width="6.5" height="14.5" fill="#dc143c" opacity="0.5" rx="0.4"/>
    <rect x="236.5" y="252.0" width="6.5" height="14.5" fill="#dc143c" opacity="0.5" rx="0.4"/>
    <rect x="244.5" y="251.0" width="8.4" height="16.4" fill="#dc143c" rx="0.6"/>
    <rect x="253.5" y="251.0" width="8.4" height="16.4" fill="#dc143c" rx="0.6"/>
    <rect x="263.5" y="252.0" width="6.5" height="14.5" fill="#dc143c" opacity="0.5" rx="0.4"/>
    <rect x="272.5" y="252.0" width="6.5" height="14.5" fill="#dc143c" opacity="0.5" rx="0.4"/>
    <rect x="281.5" y="252.0" width="6.5" height="14.5" fill="#dc143c" opacity="0.5" rx="0.4"/>
    <rect x="290.5" y="252.0" width="6.5" height="14.5" fill="#dc143c" opacity="0.5" rx="0.4"/>
    <rect x="298.5" y="251.0" width="8.4" height="16.4" fill="#dc143c" rx="0.6"/>
    <rect x="307.5" y="251.0" width="8.4" height="16.4" fill="#dc143c" rx="0.6"/>
    <rect x="317.5" y="252.0" width="6.5" height="14.5" fill="#dc143c" opacity="0.5" rx="0.4"/>
    <rect x="325.5" y="251.0" width="8.4" height="16.4" fill="#dc143c" rx="0.6"/>
    <rect x="334.5" y="251.0" width="8.4" height="16.4" fill="#dc143c" rx="0.6"/>
    <rect x="344.5" y="252.0" width="6.5" height="14.5" fill="#dc143c" opacity="0.5" rx="0.4"/>
    <rect x="353.5" y="252.0" width="6.5" height="14.5" fill="#dc143c" opacity="0.5" rx="0.4"/>
    <rect x="362.5" y="252.0" width="6.5" height="14.5" fill="#dc143c" opacity="0.5" rx="0.4"/>
    <rect x="371.5" y="252.0" width="6.5" height="14.5" fill="#dc143c" opacity="0.5" rx="0.4"/>
    <rect x="380.5" y="252.0" width="6.5" height="14.5" fill="#dc143c" opacity="0.5" rx="0.4"/>
    <rect x="389.5" y="252.0" width="6.5" height="14.5" fill="#dc143c" opacity="0.5" rx="0.4"/>
    <rect x="397.5" y="251.0" width="8.4" height="16.4" fill="#dc143c" rx="0.6"/>
    <rect x="406.5" y="251.0" width="8.4" height="16.4" fill="#dc143c" rx="0.6"/>
    <rect x="415.5" y="251.0" width="8.4" height="16.4" fill="#dc143c" rx="0.6"/>
    <rect x="424.5" y="251.0" width="8.4" height="16.4" fill="#dc143c" rx="0.6"/>
    <rect x="434.5" y="252.0" width="6.5" height="14.5" fill="#dc143c" opacity="0.5" rx="0.4"/>
    <rect x="451.5" y="251.0" width="8.4" height="16.4" fill="#dc143c" rx="0.6"/>
    <rect x="460.5" y="251.0" width="8.4" height="16.4" fill="#dc143c" rx="0.6"/>
    <rect x="469.5" y="251.0" width="8.4" height="16.4" fill="#dc143c" rx="0.6"/>
    <rect x="478.5" y="251.0" width="8.4" height="16.4" fill="#dc143c" rx="0.6"/>
    <rect x="488.5" y="252.0" width="6.5" height="14.5" fill="#dc143c" opacity="0.5" rx="0.4"/>
    <rect x="496.5" y="251.0" width="8.4" height="16.4" fill="#dc143c" rx="0.6"/>
    <rect x="505.5" y="251.0" width="8.4" height="16.4" fill="#dc143c" rx="0.6"/>
    <rect x="515.5" y="252.0" width="6.5" height="14.5" fill="#dc143c" opacity="0.5" rx="0.4"/>
    <rect x="524.5" y="252.0" width="6.5" height="14.5" fill="#dc143c" opacity="0.5" rx="0.4"/>
    <rect x="533.5" y="252.0" width="6.5" height="14.5" fill="#dc143c" opacity="0.5" rx="0.4"/>
    <rect x="542.5" y="252.0" width="6.5" height="14.5" fill="#dc143c" opacity="0.5" rx="0.4"/>
    <rect x="550.5" y="251.0" width="8.4" height="16.4" fill="#dc143c" rx="0.6"/>
    <rect x="559.5" y="251.0" width="8.4" height="16.4" fill="#dc143c" rx="0.6"/>
    <rect x="569.5" y="252.0" width="6.5" height="14.5" fill="#dc143c" opacity="0.5" rx="0.4"/>
    <rect x="577.5" y="251.0" width="8.4" height="16.4" fill="#dc143c" rx="0.6"/>
    <rect x="586.5" y="251.0" width="8.4" height="16.4" fill="#dc143c" rx="0.6"/>
    <rect x="596.5" y="252.0" width="6.5" height="14.5" fill="#dc143c" opacity="0.5" rx="0.4"/>
    <rect x="613.5" y="251.0" width="8.4" height="16.4" fill="#dc143c" rx="0.6"/>
    <rect x="622.5" y="251.0" width="8.4" height="16.4" fill="#dc143c" rx="0.6"/>
    <rect x="632.5" y="252.0" width="6.5" height="14.5" fill="#dc143c" opacity="0.5" rx="0.4"/>
    <rect x="641.5" y="252.0" width="6.5" height="14.5" fill="#dc143c" opacity="0.5" rx="0.4"/>
    <rect x="649.5" y="251.0" width="8.4" height="16.4" fill="#dc143c" rx="0.6"/>
    <rect x="658.5" y="251.0" width="8.4" height="16.4" fill="#dc143c" rx="0.6"/>
    <rect x="668.5" y="252.0" width="6.5" height="14.5" fill="#dc143c" opacity="0.5" rx="0.4"/>
    <rect x="677.5" y="252.0" width="6.5" height="14.5" fill="#dc143c" opacity="0.5" rx="0.4"/>
    <rect x="686.5" y="252.0" width="6.5" height="14.5" fill="#dc143c" opacity="0.5" rx="0.4"/>
    <rect x="694.5" y="251.0" width="8.4" height="16.4" fill="#dc143c" rx="0.6"/>
    <rect x="703.5" y="251.0" width="8.4" height="16.4" fill="#dc143c" rx="0.6"/>
    <rect x="713.5" y="252.0" width="6.5" height="14.5" fill="#dc143c" opacity="0.5" rx="0.4"/>
    <rect x="721.5" y="251.0" width="8.4" height="16.4" fill="#dc143c" rx="0.6"/>
    <rect x="730.5" y="251.0" width="8.4" height="16.4" fill="#dc143c" rx="0.6"/>
    <rect x="740.5" y="252.0" width="6.5" height="14.5" fill="#dc143c" opacity="0.5" rx="0.4"/>
    <rect x="749.5" y="252.0" width="6.5" height="14.5" fill="#dc143c" opacity="0.5" rx="0.4"/>
    <rect x="758.5" y="252.0" width="6.5" height="14.5" fill="#dc143c" opacity="0.5" rx="0.4"/>
    <rect x="766.5" y="251.0" width="8.4" height="16.4" fill="#dc143c" rx="0.6"/>
    <rect x="775.5" y="251.0" width="8.4" height="16.4" fill="#dc143c" rx="0.6"/>
    <rect x="785.5" y="252.0" width="6.5" height="14.5" fill="#dc143c" opacity="0.5" rx="0.4"/>
    <rect x="794.5" y="252.0" width="6.5" height="14.5" fill="#dc143c" opacity="0.5" rx="0.4"/>
    <rect x="803.5" y="252.0" width="6.5" height="14.5" fill="#dc143c" opacity="0.5" rx="0.4"/>
    <rect x="812.5" y="252.0" width="6.5" height="14.5" fill="#dc143c" opacity="0.5" rx="0.4"/>
    <rect x="820.5" y="251.0" width="8.4" height="16.4" fill="#dc143c" rx="0.6"/>
    <rect x="829.5" y="251.0" width="8.4" height="16.4" fill="#dc143c" rx="0.6"/>
    <rect x="839.5" y="252.0" width="6.5" height="14.5" fill="#dc143c" opacity="0.5" rx="0.4"/>
    <rect x="848.5" y="252.0" width="6.5" height="14.5" fill="#dc143c" opacity="0.5" rx="0.4"/>
    <rect x="857.5" y="252.0" width="6.5" height="14.5" fill="#dc143c" opacity="0.5" rx="0.4"/>
    <rect x="866.5" y="252.0" width="6.5" height="14.5" fill="#dc143c" opacity="0.5" rx="0.4"/>
    <rect x="874.5" y="251.0" width="8.4" height="16.4" fill="#dc143c" rx="0.6"/>
    <rect x="883.5" y="251.0" width="8.4" height="16.4" fill="#dc143c" rx="0.6"/>
    <rect x="893.5" y="252.0" width="6.5" height="14.5" fill="#dc143c" opacity="0.5" rx="0.4"/>
    <rect x="902.5" y="252.0" width="6.5" height="14.5" fill="#dc143c" opacity="0.5" rx="0.4"/>
    <rect x="911.5" y="252.0" width="6.5" height="14.5" fill="#dc143c" opacity="0.5" rx="0.4"/>
    <rect x="920.5" y="252.0" width="6.5" height="14.5" fill="#dc143c" opacity="0.5" rx="0.4"/>
    <rect x="928.5" y="251.0" width="8.4" height="16.4" fill="#dc143c" rx="0.6"/>
    <rect x="937.5" y="251.0" width="8.4" height="16.4" fill="#dc143c" rx="0.6"/>
    <rect x="947.5" y="252.0" width="6.5" height="14.5" fill="#dc143c" opacity="0.5" rx="0.4"/>
    <rect x="955.5" y="251.0" width="8.4" height="16.4" fill="#dc143c" rx="0.6"/>
    <rect x="964.5" y="251.0" width="8.4" height="16.4" fill="#dc143c" rx="0.6"/>
    <rect x="974.5" y="252.0" width="6.5" height="14.5" fill="#dc143c" opacity="0.5" rx="0.4"/>
    <rect x="983.5" y="252.0" width="6.5" height="14.5" fill="#dc143c" opacity="0.5" rx="0.4"/>
    <rect x="992.5" y="252.0" width="6.5" height="14.5" fill="#dc143c" opacity="0.5" rx="0.4"/>
    <rect x="1000.5" y="251.0" width="8.4" height="16.4" fill="#dc143c" rx="0.6"/>
    <rect x="1009.5" y="251.0" width="8.4" height="16.4" fill="#dc143c" rx="0.6"/>
    <rect x="1019.5" y="252.0" width="6.5" height="14.5" fill="#dc143c" opacity="0.5" rx="0.4"/>
    <rect x="172.5" y="268.0" width="8.4" height="16.4" fill="#dc143c" rx="0.6"/>
    <rect x="181.5" y="268.0" width="8.4" height="16.4" fill="#dc143c" rx="0.6"/>
    <rect x="190.5" y="268.0" width="8.4" height="16.4" fill="#dc143c" rx="0.6"/>
    <rect x="199.5" y="268.0" width="8.4" height="16.4" fill="#dc143c" rx="0.6"/>
    <rect x="208.5" y="268.0" width="8.4" height="16.4" fill="#dc143c" rx="0.6"/>
    <rect x="218.5" y="269.0" width="6.5" height="14.5" fill="#dc143c" opacity="0.5" rx="0.4"/>
    <rect x="227.5" y="269.0" width="6.5" height="14.5" fill="#dc143c" opacity="0.5" rx="0.4"/>
    <rect x="244.5" y="268.0" width="8.4" height="16.4" fill="#dc143c" rx="0.6"/>
    <rect x="253.5" y="268.0" width="8.4" height="16.4" fill="#dc143c" rx="0.6"/>
    <rect x="263.5" y="269.0" width="6.5" height="14.5" fill="#dc143c" opacity="0.5" rx="0.4"/>
    <rect x="298.5" y="268.0" width="8.4" height="16.4" fill="#dc143c" rx="0.6"/>
    <rect x="307.5" y="268.0" width="8.4" height="16.4" fill="#dc143c" rx="0.6"/>
    <rect x="317.5" y="269.0" width="6.5" height="14.5" fill="#dc143c" opacity="0.5" rx="0.4"/>
    <rect x="325.5" y="268.0" width="8.4" height="16.4" fill="#dc143c" rx="0.6"/>
    <rect x="334.5" y="268.0" width="8.4" height="16.4" fill="#dc143c" rx="0.6"/>
    <rect x="343.5" y="268.0" width="8.4" height="16.4" fill="#dc143c" rx="0.6"/>
    <rect x="352.5" y="268.0" width="8.4" height="16.4" fill="#dc143c" rx="0.6"/>
    <rect x="361.5" y="268.0" width="8.4" height="16.4" fill="#dc143c" rx="0.6"/>
    <rect x="370.5" y="268.0" width="8.4" height="16.4" fill="#dc143c" rx="0.6"/>
    <rect x="379.5" y="268.0" width="8.4" height="16.4" fill="#dc143c" rx="0.6"/>
    <rect x="389.5" y="269.0" width="6.5" height="14.5" fill="#dc143c" opacity="0.5" rx="0.4"/>
    <rect x="397.5" y="268.0" width="8.4" height="16.4" fill="#dc143c" rx="0.6"/>
    <rect x="406.5" y="268.0" width="8.4" height="16.4" fill="#dc143c" rx="0.6"/>
    <rect x="416.5" y="269.0" width="6.5" height="14.5" fill="#dc143c" opacity="0.5" rx="0.4"/>
    <rect x="424.5" y="268.0" width="8.4" height="16.4" fill="#dc143c" rx="0.6"/>
    <rect x="433.5" y="268.0" width="8.4" height="16.4" fill="#dc143c" rx="0.6"/>
    <rect x="442.5" y="268.0" width="8.4" height="16.4" fill="#dc143c" rx="0.6"/>
    <rect x="451.5" y="268.0" width="8.4" height="16.4" fill="#dc143c" rx="0.6"/>
    <rect x="461.5" y="269.0" width="6.5" height="14.5" fill="#dc143c" opacity="0.5" rx="0.4"/>
    <rect x="469.5" y="268.0" width="8.4" height="16.4" fill="#dc143c" rx="0.6"/>
    <rect x="478.5" y="268.0" width="8.4" height="16.4" fill="#dc143c" rx="0.6"/>
    <rect x="488.5" y="269.0" width="6.5" height="14.5" fill="#dc143c" opacity="0.5" rx="0.4"/>
    <rect x="496.5" y="268.0" width="8.4" height="16.4" fill="#dc143c" rx="0.6"/>
    <rect x="505.5" y="268.0" width="8.4" height="16.4" fill="#dc143c" rx="0.6"/>
    <rect x="515.5" y="269.0" width="6.5" height="14.5" fill="#dc143c" opacity="0.5" rx="0.4"/>
    <rect x="550.5" y="268.0" width="8.4" height="16.4" fill="#dc143c" rx="0.6"/>
    <rect x="559.5" y="268.0" width="8.4" height="16.4" fill="#dc143c" rx="0.6"/>
    <rect x="569.5" y="269.0" width="6.5" height="14.5" fill="#dc143c" opacity="0.5" rx="0.4"/>
    <rect x="577.5" y="268.0" width="8.4" height="16.4" fill="#dc143c" rx="0.6"/>
    <rect x="586.5" y="268.0" width="8.4" height="16.4" fill="#dc143c" rx="0.6"/>
    <rect x="595.5" y="268.0" width="8.4" height="16.4" fill="#dc143c" rx="0.6"/>
    <rect x="604.5" y="268.0" width="8.4" height="16.4" fill="#dc143c" rx="0.6"/>
    <rect x="613.5" y="268.0" width="8.4" height="16.4" fill="#dc143c" rx="0.6"/>
    <rect x="623.5" y="269.0" width="6.5" height="14.5" fill="#dc143c" opacity="0.5" rx="0.4"/>
    <rect x="632.5" y="269.0" width="6.5" height="14.5" fill="#dc143c" opacity="0.5" rx="0.4"/>
    <rect x="649.5" y="268.0" width="8.4" height="16.4" fill="#dc143c" rx="0.6"/>
    <rect x="658.5" y="268.0" width="8.4" height="16.4" fill="#dc143c" rx="0.6"/>
    <rect x="667.5" y="268.0" width="8.4" height="16.4" fill="#dc143c" rx="0.6"/>
    <rect x="676.5" y="268.0" width="8.4" height="16.4" fill="#dc143c" rx="0.6"/>
    <rect x="685.5" y="268.0" width="8.4" height="16.4" fill="#dc143c" rx="0.6"/>
    <rect x="694.5" y="268.0" width="8.4" height="16.4" fill="#dc143c" rx="0.6"/>
    <rect x="704.5" y="269.0" width="6.5" height="14.5" fill="#dc143c" opacity="0.5" rx="0.4"/>
    <rect x="713.5" y="269.0" width="6.5" height="14.5" fill="#dc143c" opacity="0.5" rx="0.4"/>
    <rect x="721.5" y="268.0" width="8.4" height="16.4" fill="#dc143c" rx="0.6"/>
    <rect x="730.5" y="268.0" width="8.4" height="16.4" fill="#dc143c" rx="0.6"/>
    <rect x="739.5" y="268.0" width="8.4" height="16.4" fill="#dc143c" rx="0.6"/>
    <rect x="748.5" y="268.0" width="8.4" height="16.4" fill="#dc143c" rx="0.6"/>
    <rect x="757.5" y="268.0" width="8.4" height="16.4" fill="#dc143c" rx="0.6"/>
    <rect x="766.5" y="268.0" width="8.4" height="16.4" fill="#dc143c" rx="0.6"/>
    <rect x="775.5" y="268.0" width="8.4" height="16.4" fill="#dc143c" rx="0.6"/>
    <rect x="785.5" y="269.0" width="6.5" height="14.5" fill="#dc143c" opacity="0.5" rx="0.4"/>
    <rect x="820.5" y="268.0" width="8.4" height="16.4" fill="#dc143c" rx="0.6"/>
    <rect x="829.5" y="268.0" width="8.4" height="16.4" fill="#dc143c" rx="0.6"/>
    <rect x="839.5" y="269.0" width="6.5" height="14.5" fill="#dc143c" opacity="0.5" rx="0.4"/>
    <rect x="874.5" y="268.0" width="8.4" height="16.4" fill="#dc143c" rx="0.6"/>
    <rect x="883.5" y="268.0" width="8.4" height="16.4" fill="#dc143c" rx="0.6"/>
    <rect x="893.5" y="269.0" width="6.5" height="14.5" fill="#dc143c" opacity="0.5" rx="0.4"/>
    <rect x="928.5" y="268.0" width="8.4" height="16.4" fill="#dc143c" rx="0.6"/>
    <rect x="937.5" y="268.0" width="8.4" height="16.4" fill="#dc143c" rx="0.6"/>
    <rect x="947.5" y="269.0" width="6.5" height="14.5" fill="#dc143c" opacity="0.5" rx="0.4"/>
    <rect x="955.5" y="268.0" width="8.4" height="16.4" fill="#dc143c" rx="0.6"/>
    <rect x="964.5" y="268.0" width="8.4" height="16.4" fill="#dc143c" rx="0.6"/>
    <rect x="973.5" y="268.0" width="8.4" height="16.4" fill="#dc143c" rx="0.6"/>
    <rect x="982.5" y="268.0" width="8.4" height="16.4" fill="#dc143c" rx="0.6"/>
    <rect x="991.5" y="268.0" width="8.4" height="16.4" fill="#dc143c" rx="0.6"/>
    <rect x="1000.5" y="268.0" width="8.4" height="16.4" fill="#dc143c" rx="0.6"/>
    <rect x="1010.5" y="269.0" width="6.5" height="14.5" fill="#dc143c" opacity="0.5" rx="0.4"/>
    <rect x="1019.5" y="269.0" width="6.5" height="14.5" fill="#dc143c" opacity="0.5" rx="0.4"/>
    <rect x="172.5" y="285.0" width="8.4" height="16.4" fill="#dc143c" rx="0.6"/>
    <rect x="181.5" y="285.0" width="8.4" height="16.4" fill="#dc143c" rx="0.6"/>
    <rect x="191.5" y="286.0" width="6.5" height="14.5" fill="#dc143c" opacity="0.5" rx="0.4"/>
    <rect x="200.5" y="286.0" width="6.5" height="14.5" fill="#dc143c" opacity="0.5" rx="0.4"/>
    <rect x="208.5" y="285.0" width="8.4" height="16.4" fill="#dc143c" rx="0.6"/>
    <rect x="217.5" y="285.0" width="8.4" height="16.4" fill="#dc143c" rx="0.6"/>
    <rect x="227.5" y="286.0" width="6.5" height="14.5" fill="#dc143c" opacity="0.5" rx="0.4"/>
    <rect x="244.5" y="285.0" width="8.4" height="16.4" fill="#dc143c" rx="0.6"/>
    <rect x="253.5" y="285.0" width="8.4" height="16.4" fill="#dc143c" rx="0.6"/>
    <rect x="263.5" y="286.0" width="6.5" height="14.5" fill="#dc143c" opacity="0.5" rx="0.4"/>
    <rect x="298.5" y="285.0" width="8.4" height="16.4" fill="#dc143c" rx="0.6"/>
    <rect x="307.5" y="285.0" width="8.4" height="16.4" fill="#dc143c" rx="0.6"/>
    <rect x="317.5" y="286.0" width="6.5" height="14.5" fill="#dc143c" opacity="0.5" rx="0.4"/>
    <rect x="326.5" y="286.0" width="6.5" height="14.5" fill="#dc143c" opacity="0.5" rx="0.4"/>
    <rect x="335.5" y="286.0" width="6.5" height="14.5" fill="#dc143c" opacity="0.5" rx="0.4"/>
    <rect x="344.5" y="286.0" width="6.5" height="14.5" fill="#dc143c" opacity="0.5" rx="0.4"/>
    <rect x="353.5" y="286.0" width="6.5" height="14.5" fill="#dc143c" opacity="0.5" rx="0.4"/>
    <rect x="362.5" y="286.0" width="6.5" height="14.5" fill="#dc143c" opacity="0.5" rx="0.4"/>
    <rect x="370.5" y="285.0" width="8.4" height="16.4" fill="#dc143c" rx="0.6"/>
    <rect x="379.5" y="285.0" width="8.4" height="16.4" fill="#dc143c" rx="0.6"/>
    <rect x="389.5" y="286.0" width="6.5" height="14.5" fill="#dc143c" opacity="0.5" rx="0.4"/>
    <rect x="397.5" y="285.0" width="8.4" height="16.4" fill="#dc143c" rx="0.6"/>
    <rect x="406.5" y="285.0" width="8.4" height="16.4" fill="#dc143c" rx="0.6"/>
    <rect x="416.5" y="286.0" width="6.5" height="14.5" fill="#dc143c" opacity="0.5" rx="0.4"/>
    <rect x="425.5" y="286.0" width="6.5" height="14.5" fill="#dc143c" opacity="0.5" rx="0.4"/>
    <rect x="433.5" y="285.0" width="8.4" height="16.4" fill="#dc143c" rx="0.6"/>
    <rect x="442.5" y="285.0" width="8.4" height="16.4" fill="#dc143c" rx="0.6"/>
    <rect x="452.5" y="286.0" width="6.5" height="14.5" fill="#dc143c" opacity="0.5" rx="0.4"/>
    <rect x="461.5" y="286.0" width="6.5" height="14.5" fill="#dc143c" opacity="0.5" rx="0.4"/>
    <rect x="469.5" y="285.0" width="8.4" height="16.4" fill="#dc143c" rx="0.6"/>
    <rect x="478.5" y="285.0" width="8.4" height="16.4" fill="#dc143c" rx="0.6"/>
    <rect x="488.5" y="286.0" width="6.5" height="14.5" fill="#dc143c" opacity="0.5" rx="0.4"/>
    <rect x="496.5" y="285.0" width="8.4" height="16.4" fill="#dc143c" rx="0.6"/>
    <rect x="505.5" y="285.0" width="8.4" height="16.4" fill="#dc143c" rx="0.6"/>
    <rect x="515.5" y="286.0" width="6.5" height="14.5" fill="#dc143c" opacity="0.5" rx="0.4"/>
    <rect x="550.5" y="285.0" width="8.4" height="16.4" fill="#dc143c" rx="0.6"/>
    <rect x="559.5" y="285.0" width="8.4" height="16.4" fill="#dc143c" rx="0.6"/>
    <rect x="569.5" y="286.0" width="6.5" height="14.5" fill="#dc143c" opacity="0.5" rx="0.4"/>
    <rect x="577.5" y="285.0" width="8.4" height="16.4" fill="#dc143c" rx="0.6"/>
    <rect x="586.5" y="285.0" width="8.4" height="16.4" fill="#dc143c" rx="0.6"/>
    <rect x="596.5" y="286.0" width="6.5" height="14.5" fill="#dc143c" opacity="0.5" rx="0.4"/>
    <rect x="605.5" y="286.0" width="6.5" height="14.5" fill="#dc143c" opacity="0.5" rx="0.4"/>
    <rect x="613.5" y="285.0" width="8.4" height="16.4" fill="#dc143c" rx="0.6"/>
    <rect x="622.5" y="285.0" width="8.4" height="16.4" fill="#dc143c" rx="0.6"/>
    <rect x="632.5" y="286.0" width="6.5" height="14.5" fill="#dc143c" opacity="0.5" rx="0.4"/>
    <rect x="649.5" y="285.0" width="8.4" height="16.4" fill="#dc143c" rx="0.6"/>
    <rect x="658.5" y="285.0" width="8.4" height="16.4" fill="#dc143c" rx="0.6"/>
    <rect x="668.5" y="286.0" width="6.5" height="14.5" fill="#dc143c" opacity="0.5" rx="0.4"/>
    <rect x="677.5" y="286.0" width="6.5" height="14.5" fill="#dc143c" opacity="0.5" rx="0.4"/>
    <rect x="686.5" y="286.0" width="6.5" height="14.5" fill="#dc143c" opacity="0.5" rx="0.4"/>
    <rect x="694.5" y="285.0" width="8.4" height="16.4" fill="#dc143c" rx="0.6"/>
    <rect x="703.5" y="285.0" width="8.4" height="16.4" fill="#dc143c" rx="0.6"/>
    <rect x="713.5" y="286.0" width="6.5" height="14.5" fill="#dc143c" opacity="0.5" rx="0.4"/>
    <rect x="721.5" y="285.0" width="8.4" height="16.4" fill="#dc143c" rx="0.6"/>
    <rect x="730.5" y="285.0" width="8.4" height="16.4" fill="#dc143c" rx="0.6"/>
    <rect x="740.5" y="286.0" width="6.5" height="14.5" fill="#dc143c" opacity="0.5" rx="0.4"/>
    <rect x="749.5" y="286.0" width="6.5" height="14.5" fill="#dc143c" opacity="0.5" rx="0.4"/>
    <rect x="758.5" y="286.0" width="6.5" height="14.5" fill="#dc143c" opacity="0.5" rx="0.4"/>
    <rect x="766.5" y="285.0" width="8.4" height="16.4" fill="#dc143c" rx="0.6"/>
    <rect x="775.5" y="285.0" width="8.4" height="16.4" fill="#dc143c" rx="0.6"/>
    <rect x="785.5" y="286.0" width="6.5" height="14.5" fill="#dc143c" opacity="0.5" rx="0.4"/>
    <rect x="820.5" y="285.0" width="8.4" height="16.4" fill="#dc143c" rx="0.6"/>
    <rect x="829.5" y="285.0" width="8.4" height="16.4" fill="#dc143c" rx="0.6"/>
    <rect x="839.5" y="286.0" width="6.5" height="14.5" fill="#dc143c" opacity="0.5" rx="0.4"/>
    <rect x="874.5" y="285.0" width="8.4" height="16.4" fill="#dc143c" rx="0.6"/>
    <rect x="883.5" y="285.0" width="8.4" height="16.4" fill="#dc143c" rx="0.6"/>
    <rect x="893.5" y="286.0" width="6.5" height="14.5" fill="#dc143c" opacity="0.5" rx="0.4"/>
    <rect x="928.5" y="285.0" width="8.4" height="16.4" fill="#dc143c" rx="0.6"/>
    <rect x="937.5" y="285.0" width="8.4" height="16.4" fill="#dc143c" rx="0.6"/>
    <rect x="947.5" y="286.0" width="6.5" height="14.5" fill="#dc143c" opacity="0.5" rx="0.4"/>
    <rect x="955.5" y="285.0" width="8.4" height="16.4" fill="#dc143c" rx="0.6"/>
    <rect x="964.5" y="285.0" width="8.4" height="16.4" fill="#dc143c" rx="0.6"/>
    <rect x="974.5" y="286.0" width="6.5" height="14.5" fill="#dc143c" opacity="0.5" rx="0.4"/>
    <rect x="983.5" y="286.0" width="6.5" height="14.5" fill="#dc143c" opacity="0.5" rx="0.4"/>
    <rect x="992.5" y="286.0" width="6.5" height="14.5" fill="#dc143c" opacity="0.5" rx="0.4"/>
    <rect x="1000.5" y="285.0" width="8.4" height="16.4" fill="#dc143c" rx="0.6"/>
    <rect x="1009.5" y="285.0" width="8.4" height="16.4" fill="#dc143c" rx="0.6"/>
    <rect x="1019.5" y="286.0" width="6.5" height="14.5" fill="#dc143c" opacity="0.5" rx="0.4"/>
    <rect x="172.5" y="302.0" width="8.4" height="16.4" fill="#dc143c" rx="0.6"/>
    <rect x="181.5" y="302.0" width="8.4" height="16.4" fill="#dc143c" rx="0.6"/>
    <rect x="191.5" y="303.0" width="6.5" height="14.5" fill="#dc143c" opacity="0.5" rx="0.4"/>
    <rect x="217.5" y="302.0" width="8.4" height="16.4" fill="#dc143c" rx="0.6"/>
    <rect x="226.5" y="302.0" width="8.4" height="16.4" fill="#dc143c" rx="0.6"/>
    <rect x="236.5" y="303.0" width="6.5" height="14.5" fill="#dc143c" opacity="0.5" rx="0.4"/>
    <rect x="245.5" y="303.0" width="6.5" height="14.5" fill="#dc143c" opacity="0.5" rx="0.4"/>
    <rect x="253.5" y="302.0" width="8.4" height="16.4" fill="#dc143c" rx="0.6"/>
    <rect x="262.5" y="302.0" width="8.4" height="16.4" fill="#dc143c" rx="0.6"/>
    <rect x="271.5" y="302.0" width="8.4" height="16.4" fill="#dc143c" rx="0.6"/>
    <rect x="280.5" y="302.0" width="8.4" height="16.4" fill="#dc143c" rx="0.6"/>
    <rect x="289.5" y="302.0" width="8.4" height="16.4" fill="#dc143c" rx="0.6"/>
    <rect x="298.5" y="302.0" width="8.4" height="16.4" fill="#dc143c" rx="0.6"/>
    <rect x="308.5" y="303.0" width="6.5" height="14.5" fill="#dc143c" opacity="0.5" rx="0.4"/>
    <rect x="317.5" y="303.0" width="6.5" height="14.5" fill="#dc143c" opacity="0.5" rx="0.4"/>
    <rect x="325.5" y="302.0" width="8.4" height="16.4" fill="#dc143c" rx="0.6"/>
    <rect x="334.5" y="302.0" width="8.4" height="16.4" fill="#dc143c" rx="0.6"/>
    <rect x="343.5" y="302.0" width="8.4" height="16.4" fill="#dc143c" rx="0.6"/>
    <rect x="352.5" y="302.0" width="8.4" height="16.4" fill="#dc143c" rx="0.6"/>
    <rect x="361.5" y="302.0" width="8.4" height="16.4" fill="#dc143c" rx="0.6"/>
    <rect x="370.5" y="302.0" width="8.4" height="16.4" fill="#dc143c" rx="0.6"/>
    <rect x="379.5" y="302.0" width="8.4" height="16.4" fill="#dc143c" rx="0.6"/>
    <rect x="389.5" y="303.0" width="6.5" height="14.5" fill="#dc143c" opacity="0.5" rx="0.4"/>
    <rect x="397.5" y="302.0" width="8.4" height="16.4" fill="#dc143c" rx="0.6"/>
    <rect x="406.5" y="302.0" width="8.4" height="16.4" fill="#dc143c" rx="0.6"/>
    <rect x="416.5" y="303.0" width="6.5" height="14.5" fill="#dc143c" opacity="0.5" rx="0.4"/>
    <rect x="434.5" y="303.0" width="6.5" height="14.5" fill="#dc143c" opacity="0.5" rx="0.4"/>
    <rect x="443.5" y="303.0" width="6.5" height="14.5" fill="#dc143c" opacity="0.5" rx="0.4"/>
    <rect x="452.5" y="303.0" width="6.5" height="14.5" fill="#dc143c" opacity="0.5" rx="0.4"/>
    <rect x="469.5" y="302.0" width="8.4" height="16.4" fill="#dc143c" rx="0.6"/>
    <rect x="478.5" y="302.0" width="8.4" height="16.4" fill="#dc143c" rx="0.6"/>
    <rect x="488.5" y="303.0" width="6.5" height="14.5" fill="#dc143c" opacity="0.5" rx="0.4"/>
    <rect x="497.5" y="303.0" width="6.5" height="14.5" fill="#dc143c" opacity="0.5" rx="0.4"/>
    <rect x="505.5" y="302.0" width="8.4" height="16.4" fill="#dc143c" rx="0.6"/>
    <rect x="514.5" y="302.0" width="8.4" height="16.4" fill="#dc143c" rx="0.6"/>
    <rect x="523.5" y="302.0" width="8.4" height="16.4" fill="#dc143c" rx="0.6"/>
    <rect x="532.5" y="302.0" width="8.4" height="16.4" fill="#dc143c" rx="0.6"/>
    <rect x="541.5" y="302.0" width="8.4" height="16.4" fill="#dc143c" rx="0.6"/>
    <rect x="550.5" y="302.0" width="8.4" height="16.4" fill="#dc143c" rx="0.6"/>
    <rect x="560.5" y="303.0" width="6.5" height="14.5" fill="#dc143c" opacity="0.5" rx="0.4"/>
    <rect x="569.5" y="303.0" width="6.5" height="14.5" fill="#dc143c" opacity="0.5" rx="0.4"/>
    <rect x="577.5" y="302.0" width="8.4" height="16.4" fill="#dc143c" rx="0.6"/>
    <rect x="586.5" y="302.0" width="8.4" height="16.4" fill="#dc143c" rx="0.6"/>
    <rect x="596.5" y="303.0" width="6.5" height="14.5" fill="#dc143c" opacity="0.5" rx="0.4"/>
    <rect x="622.5" y="302.0" width="8.4" height="16.4" fill="#dc143c" rx="0.6"/>
    <rect x="631.5" y="302.0" width="8.4" height="16.4" fill="#dc143c" rx="0.6"/>
    <rect x="641.5" y="303.0" width="6.5" height="14.5" fill="#dc143c" opacity="0.5" rx="0.4"/>
    <rect x="649.5" y="302.0" width="8.4" height="16.4" fill="#dc143c" rx="0.6"/>
    <rect x="658.5" y="302.0" width="8.4" height="16.4" fill="#dc143c" rx="0.6"/>
    <rect x="668.5" y="303.0" width="6.5" height="14.5" fill="#dc143c" opacity="0.5" rx="0.4"/>
    <rect x="694.5" y="302.0" width="8.4" height="16.4" fill="#dc143c" rx="0.6"/>
    <rect x="703.5" y="302.0" width="8.4" height="16.4" fill="#dc143c" rx="0.6"/>
    <rect x="713.5" y="303.0" width="6.5" height="14.5" fill="#dc143c" opacity="0.5" rx="0.4"/>
    <rect x="721.5" y="302.0" width="8.4" height="16.4" fill="#dc143c" rx="0.6"/>
    <rect x="730.5" y="302.0" width="8.4" height="16.4" fill="#dc143c" rx="0.6"/>
    <rect x="740.5" y="303.0" width="6.5" height="14.5" fill="#dc143c" opacity="0.5" rx="0.4"/>
    <rect x="766.5" y="302.0" width="8.4" height="16.4" fill="#dc143c" rx="0.6"/>
    <rect x="775.5" y="302.0" width="8.4" height="16.4" fill="#dc143c" rx="0.6"/>
    <rect x="785.5" y="303.0" width="6.5" height="14.5" fill="#dc143c" opacity="0.5" rx="0.4"/>
    <rect x="820.5" y="302.0" width="8.4" height="16.4" fill="#dc143c" rx="0.6"/>
    <rect x="829.5" y="302.0" width="8.4" height="16.4" fill="#dc143c" rx="0.6"/>
    <rect x="839.5" y="303.0" width="6.5" height="14.5" fill="#dc143c" opacity="0.5" rx="0.4"/>
    <rect x="875.5" y="303.0" width="6.5" height="14.5" fill="#dc143c" opacity="0.5" rx="0.4"/>
    <rect x="883.5" y="302.0" width="8.4" height="16.4" fill="#dc143c" rx="0.6"/>
    <rect x="892.5" y="302.0" width="8.4" height="16.4" fill="#dc143c" rx="0.6"/>
    <rect x="901.5" y="302.0" width="8.4" height="16.4" fill="#dc143c" rx="0.6"/>
    <rect x="910.5" y="302.0" width="8.4" height="16.4" fill="#dc143c" rx="0.6"/>
    <rect x="919.5" y="302.0" width="8.4" height="16.4" fill="#dc143c" rx="0.6"/>
    <rect x="928.5" y="302.0" width="8.4" height="16.4" fill="#dc143c" rx="0.6"/>
    <rect x="938.5" y="303.0" width="6.5" height="14.5" fill="#dc143c" opacity="0.5" rx="0.4"/>
    <rect x="947.5" y="303.0" width="6.5" height="14.5" fill="#dc143c" opacity="0.5" rx="0.4"/>
    <rect x="955.5" y="302.0" width="8.4" height="16.4" fill="#dc143c" rx="0.6"/>
    <rect x="964.5" y="302.0" width="8.4" height="16.4" fill="#dc143c" rx="0.6"/>
    <rect x="974.5" y="303.0" width="6.5" height="14.5" fill="#dc143c" opacity="0.5" rx="0.4"/>
    <rect x="1000.5" y="302.0" width="8.4" height="16.4" fill="#dc143c" rx="0.6"/>
    <rect x="1009.5" y="302.0" width="8.4" height="16.4" fill="#dc143c" rx="0.6"/>
    <rect x="1019.5" y="303.0" width="6.5" height="14.5" fill="#dc143c" opacity="0.5" rx="0.4"/>
    <rect x="173.5" y="320.0" width="6.5" height="14.5" fill="#dc143c" opacity="0.5" rx="0.4"/>
    <rect x="182.5" y="320.0" width="6.5" height="14.5" fill="#dc143c" opacity="0.5" rx="0.4"/>
    <rect x="191.5" y="320.0" width="6.5" height="14.5" fill="#dc143c" opacity="0.5" rx="0.4"/>
    <rect x="218.5" y="320.0" width="6.5" height="14.5" fill="#dc143c" opacity="0.5" rx="0.4"/>
    <rect x="227.5" y="320.0" width="6.5" height="14.5" fill="#dc143c" opacity="0.5" rx="0.4"/>
    <rect x="236.5" y="320.0" width="6.5" height="14.5" fill="#dc143c" opacity="0.5" rx="0.4"/>
    <rect x="254.5" y="320.0" width="6.5" height="14.5" fill="#dc143c" opacity="0.5" rx="0.4"/>
    <rect x="263.5" y="320.0" width="6.5" height="14.5" fill="#dc143c" opacity="0.5" rx="0.4"/>
    <rect x="272.5" y="320.0" width="6.5" height="14.5" fill="#dc143c" opacity="0.5" rx="0.4"/>
    <rect x="281.5" y="320.0" width="6.5" height="14.5" fill="#dc143c" opacity="0.5" rx="0.4"/>
    <rect x="290.5" y="320.0" width="6.5" height="14.5" fill="#dc143c" opacity="0.5" rx="0.4"/>
    <rect x="299.5" y="320.0" width="6.5" height="14.5" fill="#dc143c" opacity="0.5" rx="0.4"/>
    <rect x="308.5" y="320.0" width="6.5" height="14.5" fill="#dc143c" opacity="0.5" rx="0.4"/>
    <rect x="326.5" y="320.0" width="6.5" height="14.5" fill="#dc143c" opacity="0.5" rx="0.4"/>
    <rect x="335.5" y="320.0" width="6.5" height="14.5" fill="#dc143c" opacity="0.5" rx="0.4"/>
    <rect x="344.5" y="320.0" width="6.5" height="14.5" fill="#dc143c" opacity="0.5" rx="0.4"/>
    <rect x="353.5" y="320.0" width="6.5" height="14.5" fill="#dc143c" opacity="0.5" rx="0.4"/>
    <rect x="362.5" y="320.0" width="6.5" height="14.5" fill="#dc143c" opacity="0.5" rx="0.4"/>
    <rect x="371.5" y="320.0" width="6.5" height="14.5" fill="#dc143c" opacity="0.5" rx="0.4"/>
    <rect x="380.5" y="320.0" width="6.5" height="14.5" fill="#dc143c" opacity="0.5" rx="0.4"/>
    <rect x="389.5" y="320.0" width="6.5" height="14.5" fill="#dc143c" opacity="0.5" rx="0.4"/>
    <rect x="398.5" y="320.0" width="6.5" height="14.5" fill="#dc143c" opacity="0.5" rx="0.4"/>
    <rect x="407.5" y="320.0" width="6.5" height="14.5" fill="#dc143c" opacity="0.5" rx="0.4"/>
    <rect x="416.5" y="320.0" width="6.5" height="14.5" fill="#dc143c" opacity="0.5" rx="0.4"/>
    <rect x="470.5" y="320.0" width="6.5" height="14.5" fill="#dc143c" opacity="0.5" rx="0.4"/>
    <rect x="479.5" y="320.0" width="6.5" height="14.5" fill="#dc143c" opacity="0.5" rx="0.4"/>
    <rect x="488.5" y="320.0" width="6.5" height="14.5" fill="#dc143c" opacity="0.5" rx="0.4"/>
    <rect x="506.5" y="320.0" width="6.5" height="14.5" fill="#dc143c" opacity="0.5" rx="0.4"/>
    <rect x="515.5" y="320.0" width="6.5" height="14.5" fill="#dc143c" opacity="0.5" rx="0.4"/>
    <rect x="524.5" y="320.0" width="6.5" height="14.5" fill="#dc143c" opacity="0.5" rx="0.4"/>
    <rect x="533.5" y="320.0" width="6.5" height="14.5" fill="#dc143c" opacity="0.5" rx="0.4"/>
    <rect x="542.5" y="320.0" width="6.5" height="14.5" fill="#dc143c" opacity="0.5" rx="0.4"/>
    <rect x="551.5" y="320.0" width="6.5" height="14.5" fill="#dc143c" opacity="0.5" rx="0.4"/>
    <rect x="560.5" y="320.0" width="6.5" height="14.5" fill="#dc143c" opacity="0.5" rx="0.4"/>
    <rect x="578.5" y="320.0" width="6.5" height="14.5" fill="#dc143c" opacity="0.5" rx="0.4"/>
    <rect x="587.5" y="320.0" width="6.5" height="14.5" fill="#dc143c" opacity="0.5" rx="0.4"/>
    <rect x="596.5" y="320.0" width="6.5" height="14.5" fill="#dc143c" opacity="0.5" rx="0.4"/>
    <rect x="623.5" y="320.0" width="6.5" height="14.5" fill="#dc143c" opacity="0.5" rx="0.4"/>
    <rect x="632.5" y="320.0" width="6.5" height="14.5" fill="#dc143c" opacity="0.5" rx="0.4"/>
    <rect x="641.5" y="320.0" width="6.5" height="14.5" fill="#dc143c" opacity="0.5" rx="0.4"/>
    <rect x="650.5" y="320.0" width="6.5" height="14.5" fill="#dc143c" opacity="0.5" rx="0.4"/>
    <rect x="659.5" y="320.0" width="6.5" height="14.5" fill="#dc143c" opacity="0.5" rx="0.4"/>
    <rect x="668.5" y="320.0" width="6.5" height="14.5" fill="#dc143c" opacity="0.5" rx="0.4"/>
    <rect x="695.5" y="320.0" width="6.5" height="14.5" fill="#dc143c" opacity="0.5" rx="0.4"/>
    <rect x="704.5" y="320.0" width="6.5" height="14.5" fill="#dc143c" opacity="0.5" rx="0.4"/>
    <rect x="713.5" y="320.0" width="6.5" height="14.5" fill="#dc143c" opacity="0.5" rx="0.4"/>
    <rect x="722.5" y="320.0" width="6.5" height="14.5" fill="#dc143c" opacity="0.5" rx="0.4"/>
    <rect x="731.5" y="320.0" width="6.5" height="14.5" fill="#dc143c" opacity="0.5" rx="0.4"/>
    <rect x="740.5" y="320.0" width="6.5" height="14.5" fill="#dc143c" opacity="0.5" rx="0.4"/>
    <rect x="767.5" y="320.0" width="6.5" height="14.5" fill="#dc143c" opacity="0.5" rx="0.4"/>
    <rect x="776.5" y="320.0" width="6.5" height="14.5" fill="#dc143c" opacity="0.5" rx="0.4"/>
    <rect x="785.5" y="320.0" width="6.5" height="14.5" fill="#dc143c" opacity="0.5" rx="0.4"/>
    <rect x="821.5" y="320.0" width="6.5" height="14.5" fill="#dc143c" opacity="0.5" rx="0.4"/>
    <rect x="830.5" y="320.0" width="6.5" height="14.5" fill="#dc143c" opacity="0.5" rx="0.4"/>
    <rect x="839.5" y="320.0" width="6.5" height="14.5" fill="#dc143c" opacity="0.5" rx="0.4"/>
    <rect x="884.5" y="320.0" width="6.5" height="14.5" fill="#dc143c" opacity="0.5" rx="0.4"/>
    <rect x="893.5" y="320.0" width="6.5" height="14.5" fill="#dc143c" opacity="0.5" rx="0.4"/>
    <rect x="902.5" y="320.0" width="6.5" height="14.5" fill="#dc143c" opacity="0.5" rx="0.4"/>
    <rect x="911.5" y="320.0" width="6.5" height="14.5" fill="#dc143c" opacity="0.5" rx="0.4"/>
    <rect x="920.5" y="320.0" width="6.5" height="14.5" fill="#dc143c" opacity="0.5" rx="0.4"/>
    <rect x="929.5" y="320.0" width="6.5" height="14.5" fill="#dc143c" opacity="0.5" rx="0.4"/>
    <rect x="938.5" y="320.0" width="6.5" height="14.5" fill="#dc143c" opacity="0.5" rx="0.4"/>
    <rect x="956.5" y="320.0" width="6.5" height="14.5" fill="#dc143c" opacity="0.5" rx="0.4"/>
    <rect x="965.5" y="320.0" width="6.5" height="14.5" fill="#dc143c" opacity="0.5" rx="0.4"/>
    <rect x="974.5" y="320.0" width="6.5" height="14.5" fill="#dc143c" opacity="0.5" rx="0.4"/>
    <rect x="1001.5" y="320.0" width="6.5" height="14.5" fill="#dc143c" opacity="0.5" rx="0.4"/>
    <rect x="1010.5" y="320.0" width="6.5" height="14.5" fill="#dc143c" opacity="0.5" rx="0.4"/>
    <rect x="1019.5" y="320.0" width="6.5" height="14.5" fill="#dc143c" opacity="0.5" rx="0.4"/>
</g>

  <text x="600" y="376" text-anchor="middle" font-family="JetBrains Mono, Menlo, Consolas, monospace" font-size="16" fill="rgba(240,240,245,0.32)">PHP 8.4  &#183;  ~50MB RAM  &#183;  40+ providers  &#183;  parallel subagent swarms</text>

  <rect x="460" y="396" width="280" height="24" rx="6" fill="rgba(220,20,60,0.1)" stroke="rgba(220,20,60,0.18)" stroke-width="1"/>
  <text x="600" y="413" text-anchor="middle" font-family="JetBrains Mono, Menlo, Consolas, monospace" font-size="12" fill="#ff2d55">open source  |  MIT license</text>
</svg>
